<?xml version="1.0" encoding="utf-8"?>
<!-- Generator: Adobe Illustrator 17.0.0, SVG Export Plug-In . SVG Version: 6.00 Build 0)  -->
<!DOCTYPE svg PUBLIC "-//W3C//DTD SVG 1.1//EN" "http://www.w3.org/Graphics/SVG/1.1/DTD/svg11.dtd">
<svg version="1.1" id="Layer_1" xmlns="http://www.w3.org/2000/svg" xmlns:xlink="http://www.w3.org/1999/xlink" x="0px" y="0px"
	 width="1200px" height="1200px" viewBox="0 0 1200 1200" enable-background="new 0 0 1200 1200" xml:space="preserve">
<g>
	<path fill="#A4559C" d="M1007.795,454.408c6.391-9.547,12.319-19.508,17.177-30.279c52.271-116.067-11.036-257.771-141.438-316.517
		c-95.085-42.836-199.43-29.491-269.34,25.808c-8.157-10.803-17.246-21.041-27.697-30.31
		c-95.24-84.47-249.374-66.218-344.279,40.782c-75.434,85.033-90.487,200.483-45.725,286.74
		c-9.812,3.821-19.487,8.153-28.825,13.591C57.651,508.269,26.756,660.372,98.694,783.983
		c54.128,92.994,151.081,143.323,242.648,135.256c0,0.074-0.016,0.159-0.016,0.244c0,127.306,115.929,230.517,258.954,230.517
		c133.195,0,242.807-89.599,257.212-204.773c106.271,15.165,217.282-53.105,262.773-169.226
		C1171.21,645.876,1120.781,504.108,1007.795,454.408z M410.081,901.019c6.115-2.799,12.186-5.757,18.076-9.196
		c15.858-9.226,29.858-20.443,42.336-32.969c-0.251,3.714-0.442,7.46-0.442,11.238c0,93.387,75.7,169.13,169.12,169.13
		c17.373,0,34.125-2.649,49.892-7.535c-26.553,12.42-56.719,19.508-88.784,19.508C502.182,1051.195,421.453,985.585,410.081,901.019
		z M235.087,482.823c2.592,2.575,4.997,5.268,7.764,7.727c14.883,13.196,31.342,23.594,48.636,31.841
		c-5.539,2.469-11.014,5.141-16.378,8.269c-80.713,46.955-108.096,150.474-61.099,231.218c8.738,15.006,19.455,28.171,31.577,39.335
		c-24.073-16.698-45.385-39.207-61.503-66.91C130.845,642.811,153.689,530.245,235.087,482.823z M570.98,179.246
		c0.063,0.075,0.101,0.128,0.175,0.181c-6.902,10.058-13.224,20.594-18.379,32.023c-3.869,8.6-6.902,17.347-9.536,26.181
		c-1.815-1.768-3.294-3.747-5.22-5.439c-69.858-61.971-176.745-55.596-238.749,14.314c-11.509,12.995-20.652,27.276-27.468,42.294
		c8.334-28.097,23.041-55.394,44.311-79.362C386.375,130.238,500.469,116.722,570.98,179.246z M947.665,432.005
		c-0.915,2.022-2.049,3.884-3.033,5.864c-24.435-2.405-48.972-0.5-72.854,5.364c5.838-8.397,11.169-17.262,15.527-26.936
		c38.367-85.129,0.442-185.296-84.734-223.652c-15.831-7.109-32.199-11.6-48.562-13.633c29.299-0.393,59.72,5.493,88.955,18.667
		C939.491,241.174,986.361,346.067,947.665,432.005z M1028.271,739.987c-31.049,79.276-103.381,128.38-176.144,126.721
		c-6.529-24.766-17.549-47.945-32.236-68.9c84.985,28.66,178.336-13.995,211.381-98.422c6.337-16.176,9.993-32.725,11.212-49.178
		C1044.352,679.432,1039.957,710.125,1028.271,739.987z"/>
	<path fill="#FFFFFF" d="M718.246,599.996c0-65.302-52.946-118.238-118.243-118.238c-65.302,0-118.249,52.935-118.249,118.238
		c0,65.292,52.946,118.249,118.249,118.249C665.299,718.245,718.246,665.288,718.246,599.996z"/>
</g>
</svg>
